<svg width="164" height="34" viewBox="0 0 164 34" fill="none" xmlns="http://www.w3.org/2000/svg">
<path d="M9.52433 2.21338L0 16.4355L9.52433 30.7864V2.21338Z" fill="black"/>
<path d="M32.1463 2.21338H13.0977V16.4999L32.1463 2.21338Z" fill="black"/>
<path d="M32.1463 30.7865H13.0977V16.5L32.1463 30.7865Z" fill="black"/>
<path d="M39.3397 28V5.99879H44.14V15.8327C45.2734 15.366 46.329 14.7771 47.3068 14.0659C48.3069 13.3325 49.1958 12.5214 49.9736 11.6324C50.7515 10.7435 51.4182 9.82122 51.9737 8.86562C52.5293 7.91001 52.9294 6.9544 53.1738 5.99879H58.6741C58.363 7.08774 57.8852 8.17669 57.2407 9.26564C56.6184 10.3324 55.874 11.3435 55.0072 12.2991C54.1405 13.2547 53.2183 14.1103 52.2404 14.8659C51.2848 15.5993 50.3181 16.1771 49.3403 16.5994V17.0994C50.3625 17.0994 51.2737 17.2216 52.0737 17.4661C52.896 17.6883 53.6183 18.055 54.2405 18.5661C54.885 19.0551 55.4517 19.6662 55.9406 20.3996C56.4295 21.133 56.8629 22.0108 57.2407 23.0331L59.0075 28H53.5738L52.4071 23.9998C52.096 22.9108 51.6848 22.0441 51.1737 21.3996C50.6626 20.7329 50.007 20.2551 49.2069 19.9662C48.4069 19.6551 47.3624 19.4995 46.0734 19.4995H44.14V28H39.3397ZM69.2093 28.4667C67.4537 28.4667 65.9091 28.1222 64.5757 27.4333C63.2423 26.7222 62.1978 25.6888 61.4422 24.3331C60.6866 22.9553 60.3088 21.2441 60.3088 19.1995C60.3088 17.155 60.6866 15.4549 61.4422 14.0992C62.2201 12.7436 63.2757 11.7324 64.6091 11.0657C65.9647 10.3768 67.4981 10.0323 69.2093 10.0323C70.965 10.0323 72.5095 10.3768 73.8429 11.0657C75.1985 11.7547 76.2542 12.7881 77.0098 14.1659C77.7876 15.5215 78.1765 17.2216 78.1765 19.2662C78.1765 21.333 77.7765 23.0553 76.9764 24.4331C76.1986 25.7888 75.1319 26.7999 73.7762 27.4666C72.4428 28.1333 70.9205 28.4667 69.2093 28.4667ZM69.376 24.8998C70.2427 24.8998 70.965 24.6998 71.5428 24.2998C72.1428 23.8998 72.5873 23.2997 72.8762 22.4997C73.1873 21.6774 73.3429 20.6885 73.3429 19.5329C73.3429 18.3106 73.1762 17.2772 72.8429 16.4327C72.5317 15.566 72.065 14.9104 71.4428 14.4659C70.8205 13.9992 70.0316 13.7659 69.076 13.7659C68.2537 13.7659 67.5426 13.9659 66.9425 14.3659C66.3425 14.7437 65.8869 15.3437 65.5758 16.166C65.2647 16.9661 65.1091 17.955 65.1091 19.1328C65.1091 21.0218 65.4869 22.4553 66.2425 23.4331C66.9981 24.4109 68.0426 24.8998 69.376 24.8998ZM81.5892 33.6003V19.3995V10.499H85.5561L85.5894 15.366L86.1894 15.3993C86.3894 14.2215 86.7339 13.2325 87.2228 12.4325C87.734 11.6324 88.3895 11.0324 89.1896 10.6324C89.9896 10.2324 90.9119 10.0323 91.9564 10.0323C93.5121 10.0323 94.8455 10.4213 95.9566 11.1991C97.0678 11.9547 97.9123 13.0325 98.4901 14.4326C99.0901 15.8104 99.3902 17.4439 99.3902 19.3329C99.3902 21.0885 99.1235 22.6553 98.5901 24.0331C98.0567 25.3887 97.2567 26.4666 96.19 27.2666C95.1455 28.0667 93.8343 28.4667 92.2564 28.4667C91.1453 28.4667 90.2008 28.2556 89.4229 27.8333C88.6673 27.4111 88.034 26.8222 87.5228 26.0666C87.0339 25.2887 86.6228 24.3665 86.2894 23.2997H85.6561C85.7894 23.8998 85.9116 24.5109 86.0228 25.1332C86.1339 25.7554 86.2228 26.3666 86.2894 26.9666C86.3561 27.5444 86.3894 28.1111 86.3894 28.6667V33.6003H81.5892ZM90.5897 24.6331C91.3897 24.6331 92.0675 24.4109 92.6231 23.9664C93.1787 23.522 93.6009 22.8997 93.8899 22.0997C94.201 21.2996 94.3565 20.3885 94.3565 19.3662C94.3565 18.255 94.201 17.3105 93.8899 16.5327C93.5787 15.7327 93.1343 15.1104 92.5564 14.6659C91.9786 14.2215 91.2897 13.9992 90.4897 13.9992C89.7785 13.9992 89.1674 14.1548 88.6562 14.4659C88.1451 14.7771 87.7117 15.1882 87.3562 15.6993C87.0228 16.2105 86.7783 16.766 86.6228 17.3661C86.4672 17.9439 86.3894 18.4995 86.3894 19.0328V19.6662C86.3894 20.0885 86.445 20.5329 86.5561 20.9996C86.6672 21.4441 86.845 21.8886 87.0895 22.333C87.3339 22.7553 87.6228 23.1442 87.9562 23.4998C88.2895 23.8331 88.6785 24.1109 89.1229 24.3331C89.5674 24.5331 90.0563 24.6331 90.5897 24.6331ZM102.847 33.6003V19.3995V10.499H106.814L106.847 15.366L107.447 15.3993C107.647 14.2215 107.992 13.2325 108.48 12.4325C108.992 11.6324 109.647 11.0324 110.447 10.6324C111.247 10.2324 112.17 10.0323 113.214 10.0323C114.77 10.0323 116.103 10.4213 117.214 11.1991C118.325 11.9547 119.17 13.0325 119.748 14.4326C120.348 15.8104 120.648 17.4439 120.648 19.3329C120.648 21.0885 120.381 22.6553 119.848 24.0331C119.314 25.3887 118.514 26.4666 117.448 27.2666C116.403 28.0667 115.092 28.4667 113.514 28.4667C112.403 28.4667 111.458 28.2556 110.681 27.8333C109.925 27.4111 109.292 26.8222 108.781 26.0666C108.292 25.2887 107.88 24.3665 107.547 23.2997H106.914C107.047 23.8998 107.169 24.5109 107.28 25.1332C107.392 25.7554 107.48 26.3666 107.547 26.9666C107.614 27.5444 107.647 28.1111 107.647 28.6667V33.6003H102.847ZM111.847 24.6331C112.647 24.6331 113.325 24.4109 113.881 23.9664C114.436 23.522 114.859 22.8997 115.148 22.0997C115.459 21.2996 115.614 20.3885 115.614 19.3662C115.614 18.255 115.459 17.3105 115.148 16.5327C114.836 15.7327 114.392 15.1104 113.814 14.6659C113.236 14.2215 112.547 13.9992 111.747 13.9992C111.036 13.9992 110.425 14.1548 109.914 14.4659C109.403 14.7771 108.969 15.1882 108.614 15.6993C108.28 16.2105 108.036 16.766 107.88 17.3661C107.725 17.9439 107.647 18.4995 107.647 19.0328V19.6662C107.647 20.0885 107.703 20.5329 107.814 20.9996C107.925 21.4441 108.103 21.8886 108.347 22.333C108.592 22.7553 108.881 23.1442 109.214 23.4998C109.547 23.8331 109.936 24.1109 110.381 24.3331C110.825 24.5331 111.314 24.6331 111.847 24.6331ZM132.136 28.4667C130.38 28.4667 128.836 28.1222 127.502 27.4333C126.169 26.7222 125.124 25.6888 124.369 24.3331C123.613 22.9553 123.235 21.2441 123.235 19.1995C123.235 17.155 123.613 15.4549 124.369 14.0992C125.147 12.7436 126.202 11.7324 127.536 11.0657C128.891 10.3768 130.425 10.0323 132.136 10.0323C133.892 10.0323 135.436 10.3768 136.77 11.0657C138.125 11.7547 139.181 12.7881 139.936 14.1659C140.714 15.5215 141.103 17.2216 141.103 19.2662C141.103 21.333 140.703 23.0553 139.903 24.4331C139.125 25.7888 138.059 26.7999 136.703 27.4666C135.369 28.1333 133.847 28.4667 132.136 28.4667ZM132.303 24.8998C133.169 24.8998 133.892 24.6998 134.469 24.2998C135.069 23.8998 135.514 23.2997 135.803 22.4997C136.114 21.6774 136.27 20.6885 136.27 19.5329C136.27 18.3106 136.103 17.2772 135.769 16.4327C135.458 15.566 134.992 14.9104 134.369 14.4659C133.747 13.9992 132.958 13.7659 132.003 13.7659C131.18 13.7659 130.469 13.9659 129.869 14.3659C129.269 14.7437 128.814 15.3437 128.502 16.166C128.191 16.9661 128.036 17.955 128.036 19.1328C128.036 21.0218 128.414 22.4553 129.169 23.4331C129.925 24.4109 130.969 24.8998 132.303 24.8998ZM144.516 28V16.9994V4.16536H149.349V9.63233C149.349 10.0768 149.327 10.5435 149.283 11.0324C149.261 11.5213 149.205 12.0213 149.116 12.5325C149.049 13.0214 148.972 13.5214 148.883 14.0326C148.816 14.5437 148.738 15.0548 148.649 15.566H149.383C149.694 14.4326 150.083 13.4548 150.549 12.6325C151.038 11.8102 151.661 11.1769 152.416 10.7324C153.172 10.2657 154.127 10.0323 155.283 10.0323C157.328 10.0323 158.861 10.7546 159.883 12.1991C160.906 13.6214 161.417 15.8104 161.417 18.7662V28H156.583V19.4995C156.583 17.6328 156.305 16.2549 155.75 15.366C155.216 14.4548 154.405 13.9992 153.316 13.9992C152.427 13.9992 151.694 14.2659 151.116 14.7993C150.538 15.3326 150.105 16.0549 149.816 16.9661C149.527 17.855 149.361 18.8551 149.316 19.9662V28H144.516Z" fill="black"/>
</svg>
