<svg width="119" height="25" viewBox="0 0 119 25" fill="none" xmlns="http://www.w3.org/2000/svg">
<path d="M6.92679 1.60986L0 11.9532L6.92679 22.3902V1.60986Z" fill="white"/>
<path d="M23.377 1.60986H9.52344V12L23.377 1.60986Z" fill="white"/>
<path d="M23.377 22.3902H9.52344V12L23.377 22.3902Z" fill="white"/>
<path d="M28.6096 20V3.99912H32.1007V11.151C32.925 10.8116 33.6927 10.3833 34.4039 9.86611C35.1312 9.33275 35.7777 8.74282 36.3434 8.09632C36.9091 7.44982 37.394 6.77907 37.798 6.08409C38.2021 5.3891 38.493 4.69411 38.6708 3.99912H42.671C42.4447 4.79109 42.0972 5.58305 41.6285 6.37501C41.176 7.15081 40.6345 7.88621 40.0042 8.58119C39.3739 9.27618 38.7031 9.89844 37.992 10.448C37.297 10.9813 36.5939 11.4015 35.8828 11.7086V12.0723C36.6262 12.0723 37.2889 12.1612 37.8708 12.339C38.4688 12.5006 38.994 12.7673 39.4466 13.139C39.9153 13.4946 40.3275 13.9391 40.683 14.4724C41.0386 15.0058 41.3538 15.6442 41.6285 16.3877L42.9135 20H38.9617L38.1132 17.0907C37.8869 16.2988 37.5879 15.6684 37.2162 15.1997C36.8444 14.7149 36.3676 14.3674 35.7858 14.1573C35.2039 13.931 34.4443 13.8178 33.5069 13.8178H32.1007V20H28.6096ZM50.333 20.3394C49.0561 20.3394 47.9329 20.0889 46.9631 19.5879C45.9934 19.0707 45.2337 18.3191 44.6842 17.3332C44.1347 16.3311 43.8599 15.0866 43.8599 13.5996C43.8599 12.1127 44.1347 10.8763 44.6842 9.89035C45.2499 8.90444 46.0176 8.16905 46.9873 7.68417C47.9733 7.18314 49.0885 6.93262 50.333 6.93262C51.6098 6.93262 52.7331 7.18314 53.7029 7.68417C54.6888 8.18521 55.4565 8.93677 56.006 9.93884C56.5717 10.9248 56.8546 12.1612 56.8546 13.6481C56.8546 15.1512 56.5636 16.4038 55.9818 17.4059C55.4161 18.3918 54.6403 19.1272 53.6544 19.6121C52.6846 20.097 51.5775 20.3394 50.333 20.3394ZM50.4542 17.7453C51.0845 17.7453 51.6098 17.5999 52.03 17.3089C52.4664 17.018 52.7897 16.5816 52.9998 15.9998C53.2261 15.4018 53.3392 14.6825 53.3392 13.8421C53.3392 12.9531 53.218 12.2016 52.9756 11.5874C52.7493 10.9571 52.4099 10.4803 51.9573 10.157C51.5048 9.81762 50.931 9.64792 50.236 9.64792C49.638 9.64792 49.1208 9.79338 48.6844 10.0843C48.248 10.3591 47.9167 10.7955 47.6904 11.3935C47.4641 11.9753 47.351 12.6945 47.351 13.5512C47.351 14.925 47.6258 15.9675 48.1753 16.6786C48.7248 17.3898 49.4845 17.7453 50.4542 17.7453ZM59.3365 24.073V13.7451V7.27203H62.2215L62.2458 10.8116L62.6821 10.8359C62.8276 9.97925 63.0781 9.26002 63.4337 8.67817C63.8054 8.09632 64.2822 7.65993 64.8641 7.369C65.4459 7.07808 66.1167 6.93262 66.8763 6.93262C68.0077 6.93262 68.9774 7.21546 69.7856 7.78115C70.5937 8.33067 71.2079 9.11456 71.6281 10.1328C72.0645 11.1349 72.2827 12.3228 72.2827 13.6966C72.2827 14.9735 72.0887 16.1129 71.7008 17.115C71.3129 18.1009 70.7311 18.8848 69.9553 19.4666C69.1956 20.0485 68.242 20.3394 67.0945 20.3394C66.2864 20.3394 65.5995 20.1859 65.0338 19.8788C64.4843 19.5717 64.0236 19.1434 63.6519 18.5939C63.2963 18.0282 62.9973 17.3574 62.7549 16.5816H62.2942C62.3912 17.018 62.4801 17.4625 62.5609 17.915C62.6417 18.3676 62.7064 18.8121 62.7549 19.2484C62.8034 19.6687 62.8276 20.0808 62.8276 20.4849V24.073H59.3365ZM65.8823 17.5514C66.4642 17.5514 66.9571 17.3898 67.3612 17.0665C67.7653 16.7433 68.0723 16.2907 68.2825 15.7089C68.5087 15.127 68.6219 14.4643 68.6219 13.7209C68.6219 12.9127 68.5087 12.2258 68.2825 11.6601C68.0562 11.0783 67.7329 10.6257 67.3127 10.3025C66.8925 9.97925 66.3914 9.81762 65.8096 9.81762C65.2924 9.81762 64.8479 9.93076 64.4762 10.157C64.1044 10.3833 63.7893 10.6823 63.5307 11.0541C63.2882 11.4258 63.1105 11.8299 62.9973 12.2662C62.8842 12.6865 62.8276 13.0905 62.8276 13.4784V13.9391C62.8276 14.2461 62.868 14.5694 62.9488 14.9088C63.0296 15.2321 63.1589 15.5553 63.3367 15.8786C63.5145 16.1856 63.7246 16.4685 63.9671 16.7271C64.2095 16.9695 64.4923 17.1716 64.8156 17.3332C65.1388 17.4786 65.4944 17.5514 65.8823 17.5514ZM74.7966 24.073V13.7451V7.27203H77.6816L77.7059 10.8116L78.1423 10.8359C78.2877 9.97925 78.5383 9.26002 78.8938 8.67817C79.2656 8.09632 79.7424 7.65993 80.3242 7.369C80.9061 7.07808 81.5768 6.93262 82.3364 6.93262C83.4678 6.93262 84.4376 7.21546 85.2457 7.78115C86.0538 8.33067 86.668 9.11456 87.0882 10.1328C87.5246 11.1349 87.7428 12.3228 87.7428 13.6966C87.7428 14.9735 87.5489 16.1129 87.161 17.115C86.7731 18.1009 86.1912 18.8848 85.4154 19.4666C84.6558 20.0485 83.7022 20.3394 82.5546 20.3394C81.7465 20.3394 81.0596 20.1859 80.4939 19.8788C79.9444 19.5717 79.4838 19.1434 79.112 18.5939C78.7564 18.0282 78.4574 17.3574 78.215 16.5816H77.7544C77.8513 17.018 77.9402 17.4625 78.0211 17.915C78.1019 18.3676 78.1665 18.8121 78.215 19.2484C78.2635 19.6687 78.2877 20.0808 78.2877 20.4849V24.073H74.7966ZM81.3424 17.5514C81.9243 17.5514 82.4173 17.3898 82.8213 17.0665C83.2254 16.7433 83.5325 16.2907 83.7426 15.7089C83.9689 15.127 84.082 14.4643 84.082 13.7209C84.082 12.9127 83.9689 12.2258 83.7426 11.6601C83.5163 11.0783 83.1931 10.6257 82.7728 10.3025C82.3526 9.97925 81.8516 9.81762 81.2697 9.81762C80.7525 9.81762 80.308 9.93076 79.9363 10.157C79.5646 10.3833 79.2494 10.6823 78.9908 11.0541C78.7484 11.4258 78.5706 11.8299 78.4574 12.2662C78.3443 12.6865 78.2877 13.0905 78.2877 13.4784V13.9391C78.2877 14.2461 78.3281 14.5694 78.409 14.9088C78.4898 15.2321 78.6191 15.5553 78.7969 15.8786C78.9746 16.1856 79.1848 16.4685 79.4272 16.7271C79.6696 16.9695 79.9525 17.1716 80.2757 17.3332C80.599 17.4786 80.9545 17.5514 81.3424 17.5514ZM96.0978 20.3394C94.821 20.3394 93.6977 20.0889 92.7279 19.5879C91.7582 19.0707 90.9985 18.3191 90.449 17.3332C89.8995 16.3311 89.6247 15.0866 89.6247 13.5996C89.6247 12.1127 89.8995 10.8763 90.449 9.89035C91.0147 8.90444 91.7824 8.16905 92.7522 7.68417C93.7381 7.18314 94.8533 6.93262 96.0978 6.93262C97.3746 6.93262 98.4979 7.18314 99.4677 7.68417C100.454 8.18521 101.221 8.93677 101.771 9.93884C102.337 10.9248 102.619 12.1612 102.619 13.6481C102.619 15.1512 102.328 16.4038 101.747 17.4059C101.181 18.3918 100.405 19.1272 99.4192 19.6121C98.4494 20.097 97.3423 20.3394 96.0978 20.3394ZM96.219 17.7453C96.8494 17.7453 97.3746 17.5999 97.7949 17.3089C98.2313 17.018 98.5545 16.5816 98.7646 15.9998C98.9909 15.4018 99.104 14.6825 99.104 13.8421C99.104 12.9531 98.9828 12.2016 98.7404 11.5874C98.5141 10.9571 98.1747 10.4803 97.7221 10.157C97.2696 9.81762 96.6958 9.64792 96.0008 9.64792C95.4028 9.64792 94.8856 9.79338 94.4492 10.0843C94.0128 10.3591 93.6815 10.7955 93.4552 11.3935C93.229 11.9753 93.1158 12.6945 93.1158 13.5512C93.1158 14.925 93.3906 15.9675 93.9401 16.6786C94.4896 17.3898 95.2493 17.7453 96.219 17.7453ZM105.101 20V11.9996V2.66572H108.617V6.64169C108.617 6.96494 108.601 7.30436 108.568 7.65993C108.552 8.01551 108.512 8.37916 108.447 8.7509C108.398 9.10647 108.342 9.47013 108.277 9.84187C108.229 10.2136 108.172 10.5853 108.108 10.9571H108.641C108.867 10.1328 109.15 9.42164 109.489 8.82363C109.845 8.22562 110.298 7.76499 110.847 7.44174C111.397 7.10232 112.092 6.93262 112.932 6.93262C114.419 6.93262 115.534 7.4579 116.278 8.50846C117.021 9.54286 117.393 11.1349 117.393 13.2845V20H113.878V13.8178C113.878 12.4602 113.676 11.4581 113.271 10.8116C112.884 10.149 112.294 9.81762 111.502 9.81762C110.855 9.81762 110.322 10.0116 109.902 10.3995C109.481 10.7874 109.166 11.3127 108.956 11.9753C108.746 12.6218 108.625 13.3491 108.592 14.1573V20H105.101Z" fill="white"/>
</svg>
