<svg width="440" height="551" viewBox="0 0 440 551" fill="none" xmlns="http://www.w3.org/2000/svg">
<rect width="146.667" height="8" fill="#2B368B"/>
<rect width="146.667" height="8" transform="translate(146.668)" fill="#EFA421"/>
<rect width="146.667" height="8" transform="translate(293.332)" fill="#0E991D"/>
<path d="M15.1853 16L5.80078 30.0134L15.1853 44.1536V16Z" fill="#131313"/>
<path d="M37.4723 16H18.7031V30.0769L37.4723 16Z" fill="#131313"/>
<path d="M37.4723 44.1535H18.7031V30.0767L37.4723 44.1535Z" fill="#131313"/>
<path d="M54.8572 16L45.4727 30.0134L54.8572 44.1536V16Z" fill="#131313"/>
<path d="M77.1442 16H58.375V30.0769L77.1442 16Z" fill="#131313"/>
<path d="M77.1442 44.1535H58.375V30.0767L77.1442 44.1535Z" fill="#131313"/>
<path d="M94.533 16L85.1484 30.0134L94.533 44.1536V16Z" fill="#131313"/>
<path d="M116.82 16H98.0508V30.0769L116.82 16Z" fill="#131313"/>
<path d="M116.82 44.1535H98.0508V30.0767L116.82 44.1535Z" fill="#131313"/>
<path d="M134.205 16L124.82 30.0134L134.205 44.1536V16Z" fill="#131313"/>
<path d="M156.492 16H137.723V30.0769L156.492 16Z" fill="#131313"/>
<path d="M156.492 44.1535H137.723V30.0767L156.492 44.1535Z" fill="#131313"/>
<path d="M173.877 16L164.492 30.0134L173.877 44.1536V16Z" fill="#131313"/>
<path d="M196.164 16H177.395V30.0769L196.164 16Z" fill="#131313"/>
<path d="M196.164 44.1535H177.395V30.0767L196.164 44.1535Z" fill="#131313"/>
<path d="M213.549 16L204.164 30.0134L213.549 44.1536V16Z" fill="#131313"/>
<path d="M235.836 16H217.066V30.0769L235.836 16Z" fill="#131313"/>
<path d="M235.836 44.1535H217.066V30.0767L235.836 44.1535Z" fill="#131313"/>
<path d="M253.22 16L243.836 30.0134L253.22 44.1536V16Z" fill="#131313"/>
<path d="M275.507 16H256.738V30.0769L275.507 16Z" fill="#131313"/>
<path d="M275.507 44.1535H256.738V30.0767L275.507 44.1535Z" fill="#131313"/>
<path d="M292.896 16L283.512 30.0134L292.896 44.1536V16Z" fill="#131313"/>
<path d="M315.183 16H296.414V30.0769L315.183 16Z" fill="#131313"/>
<path d="M315.183 44.1535H296.414V30.0767L315.183 44.1535Z" fill="#131313"/>
<path d="M332.568 16L323.184 30.0134L332.568 44.1536V16Z" fill="#131313"/>
<path d="M354.855 16H336.086V30.0769L354.855 16Z" fill="#131313"/>
<path d="M354.855 44.1535H336.086V30.0767L354.855 44.1535Z" fill="#131313"/>
<path d="M372.24 16L362.855 30.0134L372.24 44.1536V16Z" fill="#131313"/>
<path d="M394.527 16H375.758V30.0769L394.527 16Z" fill="#131313"/>
<path d="M394.527 44.1535H375.758V30.0767L394.527 44.1535Z" fill="#131313"/>
<path d="M411.916 16L402.531 30.0134L411.916 44.1536V16Z" fill="#131313"/>
<path d="M434.203 16H415.434V30.0769L434.203 16Z" fill="#131313"/>
<path d="M434.203 44.1535H415.434V30.0767L434.203 44.1535Z" fill="#131313"/>
<path d="M15.1853 52.1538L5.80078 66.1672L15.1853 80.3074V52.1538Z" fill="#131313"/>
<path d="M37.4723 52.1538H18.7031V66.2307L37.4723 52.1538Z" fill="#131313"/>
<path d="M37.4723 80.3073H18.7031V66.2305L37.4723 80.3073Z" fill="#131313"/>
<path d="M54.8572 52.1538L45.4727 66.1672L54.8572 80.3074V52.1538Z" fill="#131313"/>
<path d="M77.1442 52.1538H58.375V66.2307L77.1442 52.1538Z" fill="#131313"/>
<path d="M77.1442 80.3073H58.375V66.2305L77.1442 80.3073Z" fill="#131313"/>
<path d="M94.533 52.1538L85.1484 66.1672L94.533 80.3074V52.1538Z" fill="#131313"/>
<path d="M116.82 52.1538H98.0508V66.2307L116.82 52.1538Z" fill="#131313"/>
<path d="M116.82 80.3073H98.0508V66.2305L116.82 80.3073Z" fill="#131313"/>
<path d="M134.205 52.1538L124.82 66.1672L134.205 80.3074V52.1538Z" fill="#131313"/>
<path d="M156.492 52.1538H137.723V66.2307L156.492 52.1538Z" fill="#131313"/>
<path d="M156.492 80.3073H137.723V66.2305L156.492 80.3073Z" fill="#131313"/>
<path d="M173.877 52.1538L164.492 66.1672L173.877 80.3074V52.1538Z" fill="#131313"/>
<path d="M196.164 52.1538H177.395V66.2307L196.164 52.1538Z" fill="#131313"/>
<path d="M196.164 80.3073H177.395V66.2305L196.164 80.3073Z" fill="#131313"/>
<path d="M213.549 52.1538L204.164 66.1672L213.549 80.3074V52.1538Z" fill="#131313"/>
<path d="M235.836 52.1538H217.066V66.2307L235.836 52.1538Z" fill="#131313"/>
<path d="M235.836 80.3073H217.066V66.2305L235.836 80.3073Z" fill="#131313"/>
<path d="M253.22 52.1538L243.836 66.1672L253.22 80.3074V52.1538Z" fill="#131313"/>
<path d="M275.507 52.1538H256.738V66.2307L275.507 52.1538Z" fill="#131313"/>
<path d="M275.507 80.3073H256.738V66.2305L275.507 80.3073Z" fill="#131313"/>
<path d="M292.896 52.1538L283.512 66.1672L292.896 80.3074V52.1538Z" fill="#131313"/>
<path d="M315.183 52.1538H296.414V66.2307L315.183 52.1538Z" fill="#131313"/>
<path d="M315.183 80.3073H296.414V66.2305L315.183 80.3073Z" fill="#131313"/>
<path d="M332.568 52.1538L323.184 66.1672L332.568 80.3074V52.1538Z" fill="#131313"/>
<path d="M354.855 52.1538H336.086V66.2307L354.855 52.1538Z" fill="#131313"/>
<path d="M354.855 80.3073H336.086V66.2305L354.855 80.3073Z" fill="#131313"/>
<path d="M372.24 52.1538L362.855 66.1672L372.24 80.3074V52.1538Z" fill="#131313"/>
<path d="M394.527 52.1538H375.758V66.2307L394.527 52.1538Z" fill="#131313"/>
<path d="M394.527 80.3073H375.758V66.2305L394.527 80.3073Z" fill="#131313"/>
<path d="M411.916 52.1538L402.531 66.1672L411.916 80.3074V52.1538Z" fill="#131313"/>
<path d="M434.203 52.1538H415.434V66.2307L434.203 52.1538Z" fill="#131313"/>
<path d="M434.203 80.3073H415.434V66.2305L434.203 80.3073Z" fill="#131313"/>
<path d="M15.1853 88.3071L5.80078 102.321L15.1853 116.461V88.3071Z" fill="#131313"/>
<path d="M37.4723 88.3071H18.7031V102.384L37.4723 88.3071Z" fill="#131313"/>
<path d="M37.4723 116.461H18.7031V102.384L37.4723 116.461Z" fill="#131313"/>
<path d="M54.8572 88.3071L45.4727 102.321L54.8572 116.461V88.3071Z" fill="#131313"/>
<path d="M77.1442 88.3071H58.375V102.384L77.1442 88.3071Z" fill="#131313"/>
<path d="M77.1442 116.461H58.375V102.384L77.1442 116.461Z" fill="#131313"/>
<path d="M94.533 88.3071L85.1484 102.321L94.533 116.461V88.3071Z" fill="#131313"/>
<path d="M116.82 88.3071H98.0508V102.384L116.82 88.3071Z" fill="#131313"/>
<path d="M116.82 116.461H98.0508V102.384L116.82 116.461Z" fill="#131313"/>
<path d="M134.205 88.3071L124.82 102.321L134.205 116.461V88.3071Z" fill="#131313"/>
<path d="M156.492 88.3071H137.723V102.384L156.492 88.3071Z" fill="#131313"/>
<path d="M156.492 116.461H137.723V102.384L156.492 116.461Z" fill="#131313"/>
<path d="M173.877 88.3071L164.492 102.321L173.877 116.461V88.3071Z" fill="#131313"/>
<path d="M196.164 88.3071H177.395V102.384L196.164 88.3071Z" fill="#131313"/>
<path d="M196.164 116.461H177.395V102.384L196.164 116.461Z" fill="#131313"/>
<path d="M213.549 88.3071L204.164 102.321L213.549 116.461V88.3071Z" fill="#131313"/>
<path d="M235.836 88.3071H217.066V102.384L235.836 88.3071Z" fill="#131313"/>
<path d="M235.836 116.461H217.066V102.384L235.836 116.461Z" fill="#131313"/>
<path d="M253.22 88.3071L243.836 102.321L253.22 116.461V88.3071Z" fill="#131313"/>
<path d="M275.507 88.3071H256.738V102.384L275.507 88.3071Z" fill="#131313"/>
<path d="M275.507 116.461H256.738V102.384L275.507 116.461Z" fill="#131313"/>
<path d="M292.896 88.3071L283.512 102.321L292.896 116.461V88.3071Z" fill="#131313"/>
<path d="M315.183 88.3071H296.414V102.384L315.183 88.3071Z" fill="#131313"/>
<path d="M315.183 116.461H296.414V102.384L315.183 116.461Z" fill="#131313"/>
<path d="M332.568 88.3071L323.184 102.321L332.568 116.461V88.3071Z" fill="#131313"/>
<path d="M354.855 88.3071H336.086V102.384L354.855 88.3071Z" fill="#131313"/>
<path d="M354.855 116.461H336.086V102.384L354.855 116.461Z" fill="#131313"/>
<path d="M372.24 88.3071L362.855 102.321L372.24 116.461V88.3071Z" fill="#131313"/>
<path d="M394.527 88.3071H375.758V102.384L394.527 88.3071Z" fill="#131313"/>
<path d="M394.527 116.461H375.758V102.384L394.527 116.461Z" fill="#131313"/>
<path d="M411.916 88.3071L402.531 102.321L411.916 116.461V88.3071Z" fill="#131313"/>
<path d="M434.203 88.3071H415.434V102.384L434.203 88.3071Z" fill="#131313"/>
<path d="M434.203 116.461H415.434V102.384L434.203 116.461Z" fill="#131313"/>
<path d="M15.1853 124.461L5.80078 138.474L15.1853 152.615V124.461Z" fill="#131313"/>
<path d="M37.4723 124.461H18.7031V138.538L37.4723 124.461Z" fill="#131313"/>
<path d="M37.4723 152.614H18.7031V138.538L37.4723 152.614Z" fill="#131313"/>
<path d="M54.8572 124.461L45.4727 138.474L54.8572 152.615V124.461Z" fill="#131313"/>
<path d="M77.1442 124.461H58.375V138.538L77.1442 124.461Z" fill="#131313"/>
<path d="M77.1442 152.614H58.375V138.538L77.1442 152.614Z" fill="#131313"/>
<path d="M94.533 124.461L85.1484 138.474L94.533 152.615V124.461Z" fill="#131313"/>
<path d="M116.82 124.461H98.0508V138.538L116.82 124.461Z" fill="#131313"/>
<path d="M116.82 152.614H98.0508V138.538L116.82 152.614Z" fill="#131313"/>
<path d="M134.205 124.461L124.82 138.474L134.205 152.615V124.461Z" fill="#131313"/>
<path d="M156.492 124.461H137.723V138.538L156.492 124.461Z" fill="#131313"/>
<path d="M156.492 152.614H137.723V138.538L156.492 152.614Z" fill="#131313"/>
<path d="M173.877 124.461L164.492 138.474L173.877 152.615V124.461Z" fill="#131313"/>
<path d="M196.164 124.461H177.395V138.538L196.164 124.461Z" fill="#131313"/>
<path d="M196.164 152.614H177.395V138.538L196.164 152.614Z" fill="#131313"/>
<path d="M213.549 124.461L204.164 138.474L213.549 152.615V124.461Z" fill="#131313"/>
<path d="M235.836 124.461H217.066V138.538L235.836 124.461Z" fill="#131313"/>
<path d="M235.836 152.614H217.066V138.538L235.836 152.614Z" fill="#131313"/>
<path d="M253.22 124.461L243.836 138.474L253.22 152.615V124.461Z" fill="#131313"/>
<path d="M275.507 124.461H256.738V138.538L275.507 124.461Z" fill="#131313"/>
<path d="M275.507 152.614H256.738V138.538L275.507 152.614Z" fill="#131313"/>
<path d="M292.896 124.461L283.512 138.474L292.896 152.615V124.461Z" fill="#131313"/>
<path d="M315.183 124.461H296.414V138.538L315.183 124.461Z" fill="#131313"/>
<path d="M315.183 152.614H296.414V138.538L315.183 152.614Z" fill="#131313"/>
<path d="M332.568 124.461L323.184 138.474L332.568 152.615V124.461Z" fill="#131313"/>
<path d="M354.855 124.461H336.086V138.538L354.855 124.461Z" fill="#131313"/>
<path d="M354.855 152.614H336.086V138.538L354.855 152.614Z" fill="#131313"/>
<path d="M372.24 124.461L362.855 138.474L372.24 152.615V124.461Z" fill="#131313"/>
<path d="M394.527 124.461H375.758V138.538L394.527 124.461Z" fill="#131313"/>
<path d="M394.527 152.614H375.758V138.538L394.527 152.614Z" fill="#131313"/>
<path d="M411.916 124.461L402.531 138.474L411.916 152.615V124.461Z" fill="#131313"/>
<path d="M434.203 124.461H415.434V138.538L434.203 124.461Z" fill="#131313"/>
<path d="M434.203 152.614H415.434V138.538L434.203 152.614Z" fill="#131313"/>
<path d="M15.1853 160.614L5.80078 174.628L15.1853 188.768V160.614Z" fill="#131313"/>
<path d="M37.4723 160.614H18.7031V174.691L37.4723 160.614Z" fill="#131313"/>
<path d="M37.4723 188.768H18.7031V174.691L37.4723 188.768Z" fill="#131313"/>
<path d="M54.8572 160.614L45.4727 174.628L54.8572 188.768V160.614Z" fill="#131313"/>
<path d="M77.1442 160.614H58.375V174.691L77.1442 160.614Z" fill="#131313"/>
<path d="M77.1442 188.768H58.375V174.691L77.1442 188.768Z" fill="#131313"/>
<path d="M94.533 160.614L85.1484 174.628L94.533 188.768V160.614Z" fill="#131313"/>
<path d="M116.82 160.614H98.0508V174.691L116.82 160.614Z" fill="#131313"/>
<path d="M116.82 188.768H98.0508V174.691L116.82 188.768Z" fill="#131313"/>
<path d="M134.205 160.614L124.82 174.628L134.205 188.768V160.614Z" fill="#131313"/>
<path d="M156.492 160.614H137.723V174.691L156.492 160.614Z" fill="#131313"/>
<path d="M156.492 188.768H137.723V174.691L156.492 188.768Z" fill="#131313"/>
<path d="M173.877 160.614L164.492 174.628L173.877 188.768V160.614Z" fill="#131313"/>
<path d="M196.164 160.614H177.395V174.691L196.164 160.614Z" fill="#131313"/>
<path d="M196.164 188.768H177.395V174.691L196.164 188.768Z" fill="#131313"/>
<path d="M213.549 160.614L204.164 174.628L213.549 188.768V160.614Z" fill="#131313"/>
<path d="M235.836 160.614H217.066V174.691L235.836 160.614Z" fill="#131313"/>
<path d="M235.836 188.768H217.066V174.691L235.836 188.768Z" fill="#131313"/>
<path d="M253.22 160.614L243.836 174.628L253.22 188.768V160.614Z" fill="#131313"/>
<path d="M275.507 160.614H256.738V174.691L275.507 160.614Z" fill="#131313"/>
<path d="M275.507 188.768H256.738V174.691L275.507 188.768Z" fill="#131313"/>
<path d="M292.896 160.614L283.512 174.628L292.896 188.768V160.614Z" fill="#131313"/>
<path d="M315.183 160.614H296.414V174.691L315.183 160.614Z" fill="#131313"/>
<path d="M315.183 188.768H296.414V174.691L315.183 188.768Z" fill="#131313"/>
<path d="M332.568 160.614L323.184 174.628L332.568 188.768V160.614Z" fill="#131313"/>
<path d="M354.855 160.614H336.086V174.691L354.855 160.614Z" fill="#131313"/>
<path d="M354.855 188.768H336.086V174.691L354.855 188.768Z" fill="#131313"/>
<path d="M372.24 160.614L362.855 174.628L372.24 188.768V160.614Z" fill="#131313"/>
<path d="M394.527 160.614H375.758V174.691L394.527 160.614Z" fill="#131313"/>
<path d="M394.527 188.768H375.758V174.691L394.527 188.768Z" fill="#131313"/>
<path d="M411.916 160.614L402.531 174.628L411.916 188.768V160.614Z" fill="#131313"/>
<path d="M434.203 160.614H415.434V174.691L434.203 160.614Z" fill="#131313"/>
<path d="M434.203 188.768H415.434V174.691L434.203 188.768Z" fill="#131313"/>
<path d="M15.1853 196.768L5.80078 210.781L15.1853 224.922V196.768Z" fill="#131313"/>
<path d="M37.4723 196.768H18.7031V210.845L37.4723 196.768Z" fill="#131313"/>
<path d="M37.4723 224.922H18.7031V210.845L37.4723 224.922Z" fill="#131313"/>
<path d="M54.8572 196.768L45.4727 210.781L54.8572 224.922V196.768Z" fill="#131313"/>
<path d="M77.1442 196.768H58.375V210.845L77.1442 196.768Z" fill="#131313"/>
<path d="M77.1442 224.922H58.375V210.845L77.1442 224.922Z" fill="#131313"/>
<path d="M94.533 196.768L85.1484 210.781L94.533 224.922V196.768Z" fill="#131313"/>
<path d="M116.82 196.768H98.0508V210.845L116.82 196.768Z" fill="#131313"/>
<path d="M116.82 224.922H98.0508V210.845L116.82 224.922Z" fill="#131313"/>
<path d="M134.205 196.768L124.82 210.781L134.205 224.922V196.768Z" fill="#131313"/>
<path d="M156.492 196.768H137.723V210.845L156.492 196.768Z" fill="#131313"/>
<path d="M156.492 224.922H137.723V210.845L156.492 224.922Z" fill="#131313"/>
<path d="M173.877 196.768L164.492 210.781L173.877 224.922V196.768Z" fill="#131313"/>
<path d="M196.164 196.768H177.395V210.845L196.164 196.768Z" fill="#131313"/>
<path d="M196.164 224.922H177.395V210.845L196.164 224.922Z" fill="#131313"/>
<path d="M213.549 196.768L204.164 210.781L213.549 224.922V196.768Z" fill="#131313"/>
<path d="M235.836 196.768H217.066V210.845L235.836 196.768Z" fill="#131313"/>
<path d="M235.836 224.922H217.066V210.845L235.836 224.922Z" fill="#131313"/>
<path d="M253.22 196.768L243.836 210.781L253.22 224.922V196.768Z" fill="#131313"/>
<path d="M275.507 196.768H256.738V210.845L275.507 196.768Z" fill="#131313"/>
<path d="M275.507 224.922H256.738V210.845L275.507 224.922Z" fill="#131313"/>
<path d="M292.896 196.768L283.512 210.781L292.896 224.922V196.768Z" fill="#131313"/>
<path d="M315.183 196.768H296.414V210.845L315.183 196.768Z" fill="#131313"/>
<path d="M315.183 224.922H296.414V210.845L315.183 224.922Z" fill="#131313"/>
<path d="M332.568 196.768L323.184 210.781L332.568 224.922V196.768Z" fill="#131313"/>
<path d="M354.855 196.768H336.086V210.845L354.855 196.768Z" fill="#131313"/>
<path d="M354.855 224.922H336.086V210.845L354.855 224.922Z" fill="#131313"/>
<path d="M372.24 196.768L362.855 210.781L372.24 224.922V196.768Z" fill="#131313"/>
<path d="M394.527 196.768H375.758V210.845L394.527 196.768Z" fill="#131313"/>
<path d="M394.527 224.922H375.758V210.845L394.527 224.922Z" fill="#131313"/>
<path d="M411.916 196.768L402.531 210.781L411.916 224.922V196.768Z" fill="#131313"/>
<path d="M434.203 196.768H415.434V210.845L434.203 196.768Z" fill="#131313"/>
<path d="M434.203 224.922H415.434V210.845L434.203 224.922Z" fill="#131313"/>
<path d="M15.1853 232.921L5.80078 246.935L15.1853 261.075V232.921Z" fill="#131313"/>
<path d="M37.4723 232.921H18.7031V246.998L37.4723 232.921Z" fill="#131313"/>
<path d="M37.4723 261.075H18.7031V246.998L37.4723 261.075Z" fill="#131313"/>
<path d="M54.8572 232.921L45.4727 246.935L54.8572 261.075V232.921Z" fill="#131313"/>
<path d="M77.1442 232.921H58.375V246.998L77.1442 232.921Z" fill="#131313"/>
<path d="M77.1442 261.075H58.375V246.998L77.1442 261.075Z" fill="#131313"/>
<path d="M94.533 232.921L85.1484 246.935L94.533 261.075V232.921Z" fill="#131313"/>
<path d="M116.82 232.921H98.0508V246.998L116.82 232.921Z" fill="#131313"/>
<path d="M116.82 261.075H98.0508V246.998L116.82 261.075Z" fill="#131313"/>
<path d="M134.205 232.921L124.82 246.935L134.205 261.075V232.921Z" fill="#131313"/>
<path d="M156.492 232.921H137.723V246.998L156.492 232.921Z" fill="#131313"/>
<path d="M156.492 261.075H137.723V246.998L156.492 261.075Z" fill="#131313"/>
<path d="M15.1853 269.075L5.80078 283.089L15.1853 297.229V269.075Z" fill="#131313"/>
<path d="M37.4723 269.075H18.7031V283.152L37.4723 269.075Z" fill="#131313"/>
<path d="M37.4723 297.229H18.7031V283.152L37.4723 297.229Z" fill="#131313"/>
<path d="M54.8572 269.075L45.4727 283.089L54.8572 297.229V269.075Z" fill="#131313"/>
<path d="M77.1442 269.075H58.375V283.152L77.1442 269.075Z" fill="#131313"/>
<path d="M77.1442 297.229H58.375V283.152L77.1442 297.229Z" fill="#131313"/>
<path d="M94.533 269.075L85.1484 283.089L94.533 297.229V269.075Z" fill="#131313"/>
<path d="M116.82 269.075H98.0508V283.152L116.82 269.075Z" fill="#131313"/>
<path d="M116.82 297.229H98.0508V283.152L116.82 297.229Z" fill="#131313"/>
<path d="M134.205 269.075L124.82 283.089L134.205 297.229V269.075Z" fill="#131313"/>
<path d="M156.492 269.075H137.723V283.152L156.492 269.075Z" fill="#131313"/>
<path d="M156.492 297.229H137.723V283.152L156.492 297.229Z" fill="#131313"/>
<path d="M15.1853 305.229L5.80078 319.242L15.1853 333.382V305.229Z" fill="#131313"/>
<path d="M37.4723 305.229H18.7031V319.305L37.4723 305.229Z" fill="#131313"/>
<path d="M37.4723 333.382H18.7031V319.305L37.4723 333.382Z" fill="#131313"/>
<path d="M54.8572 305.229L45.4727 319.242L54.8572 333.382V305.229Z" fill="#131313"/>
<path d="M77.1442 305.229H58.375V319.305L77.1442 305.229Z" fill="#131313"/>
<path d="M77.1442 333.382H58.375V319.305L77.1442 333.382Z" fill="#131313"/>
<path d="M94.533 305.229L85.1484 319.242L94.533 333.382V305.229Z" fill="#131313"/>
<path d="M116.82 305.229H98.0508V319.305L116.82 305.229Z" fill="#131313"/>
<path d="M116.82 333.382H98.0508V319.305L116.82 333.382Z" fill="#131313"/>
<path d="M134.205 305.229L124.82 319.242L134.205 333.382V305.229Z" fill="#131313"/>
<path d="M156.492 305.229H137.723V319.305L156.492 305.229Z" fill="#131313"/>
<path d="M156.492 333.382H137.723V319.305L156.492 333.382Z" fill="#131313"/>
<path d="M210.834 263.15L197.5 283.062L210.834 303.153V263.15Z" fill="#2B368B"/>
<path d="M242.504 263.15H215.836V283.152L242.504 263.15Z" fill="#EFA421"/>
<path d="M242.504 303.153H215.836V283.152L242.504 303.153Z" fill="#159838"/>
<path d="M292.896 232.921L283.512 246.935L292.896 261.075V232.921Z" fill="#131313"/>
<path d="M315.183 232.921H296.414V246.998L315.183 232.921Z" fill="#131313"/>
<path d="M315.183 261.075H296.414V246.998L315.183 261.075Z" fill="#131313"/>
<path d="M332.568 232.921L323.184 246.935L332.568 261.075V232.921Z" fill="#131313"/>
<path d="M354.855 232.921H336.086V246.998L354.855 232.921Z" fill="#131313"/>
<path d="M354.855 261.075H336.086V246.998L354.855 261.075Z" fill="#131313"/>
<path d="M372.244 232.921L362.859 246.935L372.244 261.075V232.921Z" fill="#131313"/>
<path d="M394.531 232.921H375.762V246.998L394.531 232.921Z" fill="#131313"/>
<path d="M394.531 261.075H375.762V246.998L394.531 261.075Z" fill="#131313"/>
<path d="M411.916 232.921L402.531 246.935L411.916 261.075V232.921Z" fill="#131313"/>
<path d="M434.203 232.921H415.434V246.998L434.203 232.921Z" fill="#131313"/>
<path d="M434.203 261.075H415.434V246.998L434.203 261.075Z" fill="#131313"/>
<path d="M292.896 269.075L283.512 283.089L292.896 297.229V269.075Z" fill="#131313"/>
<path d="M315.183 269.075H296.414V283.152L315.183 269.075Z" fill="#131313"/>
<path d="M315.183 297.229H296.414V283.152L315.183 297.229Z" fill="#131313"/>
<path d="M332.568 269.075L323.184 283.089L332.568 297.229V269.075Z" fill="#131313"/>
<path d="M354.855 269.075H336.086V283.152L354.855 269.075Z" fill="#131313"/>
<path d="M354.855 297.229H336.086V283.152L354.855 297.229Z" fill="#131313"/>
<path d="M372.244 269.075L362.859 283.089L372.244 297.229V269.075Z" fill="#131313"/>
<path d="M394.531 269.075H375.762V283.152L394.531 269.075Z" fill="#131313"/>
<path d="M394.531 297.229H375.762V283.152L394.531 297.229Z" fill="#131313"/>
<path d="M411.916 269.075L402.531 283.089L411.916 297.229V269.075Z" fill="#131313"/>
<path d="M434.203 269.075H415.434V283.152L434.203 269.075Z" fill="#131313"/>
<path d="M434.203 297.229H415.434V283.152L434.203 297.229Z" fill="#131313"/>
<path d="M292.896 305.229L283.512 319.242L292.896 333.382V305.229Z" fill="#131313"/>
<path d="M315.183 305.229H296.414V319.305L315.183 305.229Z" fill="#131313"/>
<path d="M315.183 333.382H296.414V319.305L315.183 333.382Z" fill="#131313"/>
<path d="M332.568 305.229L323.184 319.242L332.568 333.382V305.229Z" fill="#131313"/>
<path d="M354.855 305.229H336.086V319.305L354.855 305.229Z" fill="#131313"/>
<path d="M354.855 333.382H336.086V319.305L354.855 333.382Z" fill="#131313"/>
<path d="M372.244 305.229L362.859 319.242L372.244 333.382V305.229Z" fill="#131313"/>
<path d="M394.531 305.229H375.762V319.305L394.531 305.229Z" fill="#131313"/>
<path d="M394.531 333.382H375.762V319.305L394.531 333.382Z" fill="#131313"/>
<path d="M411.916 305.229L402.531 319.242L411.916 333.382V305.229Z" fill="#131313"/>
<path d="M434.203 305.229H415.434V319.305L434.203 305.229Z" fill="#131313"/>
<path d="M434.203 333.382H415.434V319.305L434.203 333.382Z" fill="#131313"/>
<path d="M15.1853 341.382L5.80078 355.396L15.1853 369.536V341.382Z" fill="#131313"/>
<path d="M37.4723 341.382H18.7031V355.459L37.4723 341.382Z" fill="#131313"/>
<path d="M37.4723 369.536H18.7031V355.459L37.4723 369.536Z" fill="#131313"/>
<path d="M54.8572 341.382L45.4727 355.396L54.8572 369.536V341.382Z" fill="#131313"/>
<path d="M77.1442 341.382H58.375V355.459L77.1442 341.382Z" fill="#131313"/>
<path d="M77.1442 369.536H58.375V355.459L77.1442 369.536Z" fill="#131313"/>
<path d="M94.533 341.382L85.1484 355.396L94.533 369.536V341.382Z" fill="#131313"/>
<path d="M116.82 341.382H98.0508V355.459L116.82 341.382Z" fill="#131313"/>
<path d="M116.82 369.536H98.0508V355.459L116.82 369.536Z" fill="#131313"/>
<path d="M134.205 341.382L124.82 355.396L134.205 369.536V341.382Z" fill="#131313"/>
<path d="M156.492 341.382H137.723V355.459L156.492 341.382Z" fill="#131313"/>
<path d="M156.492 369.536H137.723V355.459L156.492 369.536Z" fill="#131313"/>
<path d="M173.877 341.382L164.492 355.396L173.877 369.536V341.382Z" fill="#131313"/>
<path d="M196.164 341.382H177.395V355.459L196.164 341.382Z" fill="#131313"/>
<path d="M196.164 369.536H177.395V355.459L196.164 369.536Z" fill="#131313"/>
<path d="M213.549 341.382L204.164 355.396L213.549 369.536V341.382Z" fill="#131313"/>
<path d="M235.836 341.382H217.066V355.459L235.836 341.382Z" fill="#131313"/>
<path d="M235.836 369.536H217.066V355.459L235.836 369.536Z" fill="#131313"/>
<path d="M253.22 341.382L243.836 355.396L253.22 369.536V341.382Z" fill="#131313"/>
<path d="M275.507 341.382H256.738V355.459L275.507 341.382Z" fill="#131313"/>
<path d="M275.507 369.536H256.738V355.459L275.507 369.536Z" fill="#131313"/>
<path d="M292.896 341.382L283.512 355.396L292.896 369.536V341.382Z" fill="#131313"/>
<path d="M315.183 341.382H296.414V355.459L315.183 341.382Z" fill="#131313"/>
<path d="M315.183 369.536H296.414V355.459L315.183 369.536Z" fill="#131313"/>
<path d="M332.568 341.382L323.184 355.396L332.568 369.536V341.382Z" fill="#131313"/>
<path d="M354.855 341.382H336.086V355.459L354.855 341.382Z" fill="#131313"/>
<path d="M354.855 369.536H336.086V355.459L354.855 369.536Z" fill="#131313"/>
<path d="M372.24 341.382L362.855 355.396L372.24 369.536V341.382Z" fill="#131313"/>
<path d="M394.527 341.382H375.758V355.459L394.527 341.382Z" fill="#131313"/>
<path d="M394.527 369.536H375.758V355.459L394.527 369.536Z" fill="#131313"/>
<path d="M411.916 341.382L402.531 355.396L411.916 369.536V341.382Z" fill="#131313"/>
<path d="M434.203 341.382H415.434V355.459L434.203 341.382Z" fill="#131313"/>
<path d="M434.203 369.536H415.434V355.459L434.203 369.536Z" fill="#131313"/>
<path d="M15.1853 377.536L5.80078 391.55L15.1853 405.69V377.536Z" fill="#131313"/>
<path d="M37.4723 377.536H18.7031V391.613L37.4723 377.536Z" fill="#131313"/>
<path d="M37.4723 405.69H18.7031V391.613L37.4723 405.69Z" fill="#131313"/>
<path d="M54.8572 377.536L45.4727 391.55L54.8572 405.69V377.536Z" fill="#131313"/>
<path d="M77.1442 377.536H58.375V391.613L77.1442 377.536Z" fill="#131313"/>
<path d="M77.1442 405.69H58.375V391.613L77.1442 405.69Z" fill="#131313"/>
<path d="M94.533 377.536L85.1484 391.55L94.533 405.69V377.536Z" fill="#131313"/>
<path d="M116.82 377.536H98.0508V391.613L116.82 377.536Z" fill="#131313"/>
<path d="M116.82 405.69H98.0508V391.613L116.82 405.69Z" fill="#131313"/>
<path d="M134.205 377.536L124.82 391.55L134.205 405.69V377.536Z" fill="#131313"/>
<path d="M156.492 377.536H137.723V391.613L156.492 377.536Z" fill="#131313"/>
<path d="M156.492 405.69H137.723V391.613L156.492 405.69Z" fill="#131313"/>
<path d="M173.877 377.536L164.492 391.55L173.877 405.69V377.536Z" fill="#131313"/>
<path d="M196.164 377.536H177.395V391.613L196.164 377.536Z" fill="#131313"/>
<path d="M196.164 405.69H177.395V391.613L196.164 405.69Z" fill="#131313"/>
<path d="M213.549 377.536L204.164 391.55L213.549 405.69V377.536Z" fill="#131313"/>
<path d="M235.836 377.536H217.066V391.613L235.836 377.536Z" fill="#131313"/>
<path d="M235.836 405.69H217.066V391.613L235.836 405.69Z" fill="#131313"/>
<path d="M253.22 377.536L243.836 391.55L253.22 405.69V377.536Z" fill="#131313"/>
<path d="M275.507 377.536H256.738V391.613L275.507 377.536Z" fill="#131313"/>
<path d="M275.507 405.69H256.738V391.613L275.507 405.69Z" fill="#131313"/>
<path d="M292.896 377.536L283.512 391.55L292.896 405.69V377.536Z" fill="#131313"/>
<path d="M315.183 377.536H296.414V391.613L315.183 377.536Z" fill="#131313"/>
<path d="M315.183 405.69H296.414V391.613L315.183 405.69Z" fill="#131313"/>
<path d="M332.568 377.536L323.184 391.55L332.568 405.69V377.536Z" fill="#131313"/>
<path d="M354.855 377.536H336.086V391.613L354.855 377.536Z" fill="#131313"/>
<path d="M354.855 405.69H336.086V391.613L354.855 405.69Z" fill="#131313"/>
<path d="M372.24 377.536L362.855 391.55L372.24 405.69V377.536Z" fill="#131313"/>
<path d="M394.527 377.536H375.758V391.613L394.527 377.536Z" fill="#131313"/>
<path d="M394.527 405.69H375.758V391.613L394.527 405.69Z" fill="#131313"/>
<path d="M411.916 377.536L402.531 391.55L411.916 405.69V377.536Z" fill="#131313"/>
<path d="M434.203 377.536H415.434V391.613L434.203 377.536Z" fill="#131313"/>
<path d="M434.203 405.69H415.434V391.613L434.203 405.69Z" fill="#131313"/>
<path d="M15.1853 413.689L5.80078 427.703L15.1853 441.843V413.689Z" fill="#131313"/>
<path d="M37.4723 413.689H18.7031V427.766L37.4723 413.689Z" fill="#131313"/>
<path d="M37.4723 441.843H18.7031V427.766L37.4723 441.843Z" fill="#131313"/>
<path d="M54.8572 413.689L45.4727 427.703L54.8572 441.843V413.689Z" fill="#131313"/>
<path d="M77.1442 413.689H58.375V427.766L77.1442 413.689Z" fill="#131313"/>
<path d="M77.1442 441.843H58.375V427.766L77.1442 441.843Z" fill="#131313"/>
<path d="M94.533 413.689L85.1484 427.703L94.533 441.843V413.689Z" fill="#131313"/>
<path d="M116.82 413.689H98.0508V427.766L116.82 413.689Z" fill="#131313"/>
<path d="M116.82 441.843H98.0508V427.766L116.82 441.843Z" fill="#131313"/>
<path d="M134.205 413.689L124.82 427.703L134.205 441.843V413.689Z" fill="#131313"/>
<path d="M156.492 413.689H137.723V427.766L156.492 413.689Z" fill="#131313"/>
<path d="M156.492 441.843H137.723V427.766L156.492 441.843Z" fill="#131313"/>
<path d="M173.877 413.689L164.492 427.703L173.877 441.843V413.689Z" fill="#131313"/>
<path d="M196.164 413.689H177.395V427.766L196.164 413.689Z" fill="#131313"/>
<path d="M196.164 441.843H177.395V427.766L196.164 441.843Z" fill="#131313"/>
<path d="M213.549 413.689L204.164 427.703L213.549 441.843V413.689Z" fill="#131313"/>
<path d="M235.836 413.689H217.066V427.766L235.836 413.689Z" fill="#131313"/>
<path d="M235.836 441.843H217.066V427.766L235.836 441.843Z" fill="#131313"/>
<path d="M253.22 413.689L243.836 427.703L253.22 441.843V413.689Z" fill="#131313"/>
<path d="M275.507 413.689H256.738V427.766L275.507 413.689Z" fill="#131313"/>
<path d="M275.507 441.843H256.738V427.766L275.507 441.843Z" fill="#131313"/>
<path d="M292.896 413.689L283.512 427.703L292.896 441.843V413.689Z" fill="#131313"/>
<path d="M315.183 413.689H296.414V427.766L315.183 413.689Z" fill="#131313"/>
<path d="M315.183 441.843H296.414V427.766L315.183 441.843Z" fill="#131313"/>
<path d="M332.568 413.689L323.184 427.703L332.568 441.843V413.689Z" fill="#131313"/>
<path d="M354.855 413.689H336.086V427.766L354.855 413.689Z" fill="#131313"/>
<path d="M354.855 441.843H336.086V427.766L354.855 441.843Z" fill="#131313"/>
<path d="M372.24 413.689L362.855 427.703L372.24 441.843V413.689Z" fill="#131313"/>
<path d="M394.527 413.689H375.758V427.766L394.527 413.689Z" fill="#131313"/>
<path d="M394.527 441.843H375.758V427.766L394.527 441.843Z" fill="#131313"/>
<path d="M411.916 413.689L402.531 427.703L411.916 441.843V413.689Z" fill="#131313"/>
<path d="M434.203 413.689H415.434V427.766L434.203 413.689Z" fill="#131313"/>
<path d="M434.203 441.843H415.434V427.766L434.203 441.843Z" fill="#131313"/>
<path d="M15.1853 449.843L5.80078 463.857L15.1853 477.997V449.843Z" fill="#131313"/>
<path d="M37.4723 449.843H18.7031V463.92L37.4723 449.843Z" fill="#131313"/>
<path d="M37.4723 477.997H18.7031V463.92L37.4723 477.997Z" fill="#131313"/>
<path d="M54.8572 449.843L45.4727 463.857L54.8572 477.997V449.843Z" fill="#131313"/>
<path d="M77.1442 449.843H58.375V463.92L77.1442 449.843Z" fill="#131313"/>
<path d="M77.1442 477.997H58.375V463.92L77.1442 477.997Z" fill="#131313"/>
<path d="M94.533 449.843L85.1484 463.857L94.533 477.997V449.843Z" fill="#131313"/>
<path d="M116.82 449.843H98.0508V463.92L116.82 449.843Z" fill="#131313"/>
<path d="M116.82 477.997H98.0508V463.92L116.82 477.997Z" fill="#131313"/>
<path d="M134.205 449.843L124.82 463.857L134.205 477.997V449.843Z" fill="#131313"/>
<path d="M156.492 449.843H137.723V463.92L156.492 449.843Z" fill="#131313"/>
<path d="M156.492 477.997H137.723V463.92L156.492 477.997Z" fill="#131313"/>
<path d="M173.877 449.843L164.492 463.857L173.877 477.997V449.843Z" fill="#131313"/>
<path d="M196.164 449.843H177.395V463.92L196.164 449.843Z" fill="#131313"/>
<path d="M196.164 477.997H177.395V463.92L196.164 477.997Z" fill="#131313"/>
<path d="M213.549 449.843L204.164 463.857L213.549 477.997V449.843Z" fill="#131313"/>
<path d="M235.836 449.843H217.066V463.92L235.836 449.843Z" fill="#131313"/>
<path d="M235.836 477.997H217.066V463.92L235.836 477.997Z" fill="#131313"/>
<path d="M253.22 449.843L243.836 463.857L253.22 477.997V449.843Z" fill="#131313"/>
<path d="M275.507 449.843H256.738V463.92L275.507 449.843Z" fill="#131313"/>
<path d="M275.507 477.997H256.738V463.92L275.507 477.997Z" fill="#131313"/>
<path d="M292.896 449.843L283.512 463.857L292.896 477.997V449.843Z" fill="#131313"/>
<path d="M315.183 449.843H296.414V463.92L315.183 449.843Z" fill="#131313"/>
<path d="M315.183 477.997H296.414V463.92L315.183 477.997Z" fill="#131313"/>
<path d="M332.568 449.843L323.184 463.857L332.568 477.997V449.843Z" fill="#131313"/>
<path d="M354.855 449.843H336.086V463.92L354.855 449.843Z" fill="#131313"/>
<path d="M354.855 477.997H336.086V463.92L354.855 477.997Z" fill="#131313"/>
<path d="M372.24 449.843L362.855 463.857L372.24 477.997V449.843Z" fill="#131313"/>
<path d="M394.527 449.843H375.758V463.92L394.527 449.843Z" fill="#131313"/>
<path d="M394.527 477.997H375.758V463.92L394.527 477.997Z" fill="#131313"/>
<path d="M411.916 449.843L402.531 463.857L411.916 477.997V449.843Z" fill="#131313"/>
<path d="M434.203 449.843H415.434V463.92L434.203 449.843Z" fill="#131313"/>
<path d="M434.203 477.997H415.434V463.92L434.203 477.997Z" fill="#131313"/>
<path d="M15.1853 485.997L5.80078 500.01L15.1853 514.15V485.997Z" fill="#131313"/>
<path d="M37.4723 485.997H18.7031V500.073L37.4723 485.997Z" fill="#131313"/>
<path d="M37.4723 514.15H18.7031V500.073L37.4723 514.15Z" fill="#131313"/>
<path d="M54.8572 485.997L45.4727 500.01L54.8572 514.15V485.997Z" fill="#131313"/>
<path d="M77.1442 485.997H58.375V500.073L77.1442 485.997Z" fill="#131313"/>
<path d="M77.1442 514.15H58.375V500.073L77.1442 514.15Z" fill="#131313"/>
<path d="M94.533 485.997L85.1484 500.01L94.533 514.15V485.997Z" fill="#131313"/>
<path d="M116.82 485.997H98.0508V500.073L116.82 485.997Z" fill="#131313"/>
<path d="M116.82 514.15H98.0508V500.073L116.82 514.15Z" fill="#131313"/>
<path d="M134.205 485.997L124.82 500.01L134.205 514.15V485.997Z" fill="#131313"/>
<path d="M156.492 485.997H137.723V500.073L156.492 485.997Z" fill="#131313"/>
<path d="M156.492 514.15H137.723V500.073L156.492 514.15Z" fill="#131313"/>
<path d="M173.877 485.997L164.492 500.01L173.877 514.15V485.997Z" fill="#131313"/>
<path d="M196.164 485.997H177.395V500.073L196.164 485.997Z" fill="#131313"/>
<path d="M196.164 514.15H177.395V500.073L196.164 514.15Z" fill="#131313"/>
<path d="M213.549 485.997L204.164 500.01L213.549 514.15V485.997Z" fill="#131313"/>
<path d="M235.836 485.997H217.066V500.073L235.836 485.997Z" fill="#131313"/>
<path d="M235.836 514.15H217.066V500.073L235.836 514.15Z" fill="#131313"/>
<path d="M253.22 485.997L243.836 500.01L253.22 514.15V485.997Z" fill="#131313"/>
<path d="M275.507 485.997H256.738V500.073L275.507 485.997Z" fill="#131313"/>
<path d="M275.507 514.15H256.738V500.073L275.507 514.15Z" fill="#131313"/>
<path d="M292.896 485.997L283.512 500.01L292.896 514.15V485.997Z" fill="#131313"/>
<path d="M315.183 485.997H296.414V500.073L315.183 485.997Z" fill="#131313"/>
<path d="M315.183 514.15H296.414V500.073L315.183 514.15Z" fill="#131313"/>
<path d="M332.568 485.997L323.184 500.01L332.568 514.15V485.997Z" fill="#131313"/>
<path d="M354.855 485.997H336.086V500.073L354.855 485.997Z" fill="#131313"/>
<path d="M354.855 514.15H336.086V500.073L354.855 514.15Z" fill="#131313"/>
<path d="M372.24 485.997L362.855 500.01L372.24 514.15V485.997Z" fill="#131313"/>
<path d="M394.527 485.997H375.758V500.073L394.527 485.997Z" fill="#131313"/>
<path d="M394.527 514.15H375.758V500.073L394.527 514.15Z" fill="#131313"/>
<path d="M411.916 485.997L402.531 500.01L411.916 514.15V485.997Z" fill="#131313"/>
<path d="M434.203 485.997H415.434V500.073L434.203 485.997Z" fill="#131313"/>
<path d="M434.203 514.15H415.434V500.073L434.203 514.15Z" fill="#131313"/>
<path d="M15.1853 522.15L5.80078 536.164L15.1853 550.304V522.15Z" fill="#131313"/>
<path d="M37.4723 522.15H18.7031V536.227L37.4723 522.15Z" fill="#131313"/>
<path d="M37.4723 550.304H18.7031V536.227L37.4723 550.304Z" fill="#131313"/>
<path d="M54.8572 522.15L45.4727 536.164L54.8572 550.304V522.15Z" fill="#131313"/>
<path d="M77.1442 522.15H58.375V536.227L77.1442 522.15Z" fill="#131313"/>
<path d="M77.1442 550.304H58.375V536.227L77.1442 550.304Z" fill="#131313"/>
<path d="M94.533 522.15L85.1484 536.164L94.533 550.304V522.15Z" fill="#131313"/>
<path d="M116.82 522.15H98.0508V536.227L116.82 522.15Z" fill="#131313"/>
<path d="M116.82 550.304H98.0508V536.227L116.82 550.304Z" fill="#131313"/>
<path d="M134.205 522.15L124.82 536.164L134.205 550.304V522.15Z" fill="#131313"/>
<path d="M156.492 522.15H137.723V536.227L156.492 522.15Z" fill="#131313"/>
<path d="M156.492 550.304H137.723V536.227L156.492 550.304Z" fill="#131313"/>
<path d="M173.877 522.15L164.492 536.164L173.877 550.304V522.15Z" fill="#131313"/>
<path d="M196.164 522.15H177.395V536.227L196.164 522.15Z" fill="#131313"/>
<path d="M196.164 550.304H177.395V536.227L196.164 550.304Z" fill="#131313"/>
<path d="M213.549 522.15L204.164 536.164L213.549 550.304V522.15Z" fill="#131313"/>
<path d="M235.836 522.15H217.066V536.227L235.836 522.15Z" fill="#131313"/>
<path d="M235.836 550.304H217.066V536.227L235.836 550.304Z" fill="#131313"/>
<path d="M253.22 522.15L243.836 536.164L253.22 550.304V522.15Z" fill="#131313"/>
<path d="M275.507 522.15H256.738V536.227L275.507 522.15Z" fill="#131313"/>
<path d="M275.507 550.304H256.738V536.227L275.507 550.304Z" fill="#131313"/>
<path d="M292.896 522.15L283.512 536.164L292.896 550.304V522.15Z" fill="#131313"/>
<path d="M315.183 522.15H296.414V536.227L315.183 522.15Z" fill="#131313"/>
<path d="M315.183 550.304H296.414V536.227L315.183 550.304Z" fill="#131313"/>
<path d="M332.568 522.15L323.184 536.164L332.568 550.304V522.15Z" fill="#131313"/>
<path d="M354.855 522.15H336.086V536.227L354.855 522.15Z" fill="#131313"/>
<path d="M354.855 550.304H336.086V536.227L354.855 550.304Z" fill="#131313"/>
<path d="M372.24 522.15L362.855 536.164L372.24 550.304V522.15Z" fill="#131313"/>
<path d="M394.527 522.15H375.758V536.227L394.527 522.15Z" fill="#131313"/>
<path d="M394.527 550.304H375.758V536.227L394.527 550.304Z" fill="#131313"/>
<path d="M411.916 522.15L402.531 536.164L411.916 550.304V522.15Z" fill="#131313"/>
<path d="M434.203 522.15H415.434V536.227L434.203 522.15Z" fill="#131313"/>
<path d="M434.203 550.304H415.434V536.227L434.203 550.304Z" fill="#131313"/>
</svg>
